<svg width="22" height="20" viewBox="0 0 22 20" fill="none" xmlns="http://www.w3.org/2000/svg">
<path fill-rule="evenodd" clip-rule="evenodd" d="M0.5 8.71428C0.5 3.90152 4.59659 0 9.65 0C14.7034 0 18.8 3.90152 18.8 8.71428C18.8 10.7572 18.0618 12.636 16.8257 14.1219L21.1935 18.2939C21.603 18.685 21.602 19.3182 21.1914 19.7081C20.7807 20.0981 20.1159 20.0972 19.7065 19.7061L15.3422 15.5375C13.7798 16.7213 11.8016 17.4286 9.65 17.4286C4.59659 17.4286 0.5 13.5271 0.5 8.71428ZM9.65 2C5.75639 2 2.6 5.00609 2.6 8.71428C2.6 12.4225 5.75639 15.4286 9.65 15.4286C13.5436 15.4286 16.7 12.4225 16.7 8.71428C16.7 5.00609 13.5436 2 9.65 2Z" fill="#0AA9B4"/>
</svg>
